<?xml version="1.0" encoding="UTF-8"?>
<svg version="1.1" xmlns="http://www.w3.org/2000/svg" width="1080" height="1080">
<path d="M0 0 C356.4 0 712.8 0 1080 0 C1080 356.4 1080 712.8 1080 1080 C723.6 1080 367.2 1080 0 1080 C0 723.6 0 367.2 0 0 Z " fill="#0086CD" transform="translate(0,0)"/>
<path d="M0 0 C1.84396356 0.00056501 3.68792757 0.0002458 5.53189087 -0.00088501 C10.50839349 -0.00145601 15.4847986 0.01025721 20.46127868 0.02426291 C25.67293658 0.03681256 30.88459702 0.03794409 36.0962677 0.04031372 C45.95218649 0.04651608 55.80806062 0.06291 65.6639598 0.0830127 C76.89011354 0.10541051 88.11626947 0.11637488 99.34244001 0.12640357 C122.42338641 0.14727737 145.50429323 0.18242905 168.58520508 0.22705078 C167.9635062 3.50091177 167.24295737 6.31879767 165.83520508 9.34301758 C165.29959961 10.50398201 165.29959961 10.50398201 164.75317383 11.68840027 C164.36774414 12.50939713 163.98231445 13.33039398 163.58520508 14.17626953 C162.9915918 15.45701103 162.9915918 15.45701103 162.38598633 16.7636261 C161.12410796 19.48298082 159.85473712 22.19876207 158.58520508 24.91455078 C157.73054978 26.75351648 156.87637762 28.5927068 156.02270508 30.43212891 C149.9930225 43.41141594 149.9930225 43.41141594 148.58520508 46.22705078 C147.3199007 46.22925062 147.3199007 46.22925062 146.02903461 46.2314949 C125.46179945 46.26861828 104.89472835 46.32770618 84.32762623 46.41095352 C74.38133807 46.45068771 64.43512839 46.48310869 54.48876953 46.49804688 C45.81503152 46.51109259 37.14146658 46.53813148 28.46782607 46.58166385 C23.8792395 46.60421318 19.29086589 46.6199654 14.70221901 46.61893463 C10.37403045 46.61818414 6.04631148 46.63628963 1.71824455 46.66821861 C0.13858307 46.67666488 -1.4411314 46.67850383 -3.02080536 46.67285347 C-16.14015267 46.63221504 -30.17607666 48.05027777 -39.97338867 57.77392578 C-43.66342868 61.99708772 -44.56504947 65.17457155 -44.60229492 70.66455078 C-44.61647461 71.61201172 -44.6306543 72.55947266 -44.64526367 73.53564453 C-44.40558815 76.33456709 -43.93710685 77.88739017 -42.41479492 80.22705078 C-35.59542134 85.53100801 -29.63674056 85.37133987 -21.35473633 85.35302734 C-20.34422211 85.35489548 -19.33370789 85.35676361 -18.29257202 85.35868835 C-16.09966919 85.36268803 -13.90676219 85.3647668 -11.71385574 85.36515045 C-7.03431042 85.36857827 -2.35490249 85.38996289 2.3245945 85.41038132 C11.02980943 85.4483023 19.73487851 85.47967516 28.44018555 85.47753906 C34.50215058 85.47674748 40.56361281 85.50030924 46.62544632 85.53942108 C48.9240454 85.54981778 51.22270296 85.55145233 53.52131271 85.54376984 C69.79430505 85.49483635 84.66361211 85.75712295 97.49926758 97.12158203 C105.40428134 105.10061278 108.84293391 112.31470118 108.96020508 123.60205078 C108.79139891 139.93404744 101.67047774 150.62984724 90.58520508 162.22705078 C90.05540039 162.83162109 89.5255957 163.43619141 88.97973633 164.05908203 C74.83789853 179.5823847 49.95801085 190.39837628 29.15456772 191.67580605 C23.00088552 191.89898432 16.8504362 191.84718202 10.6940918 191.79467773 C8.34663931 191.79326417 5.99918461 191.79406525 3.6517334 191.79689026 C-2.66537921 191.79831376 -8.98200862 191.76909751 -15.2990098 191.73402047 C-21.24862998 191.7057719 -27.1982337 191.70088915 -33.14791189 191.69576111 C-44.91778971 191.68486839 -56.68749242 191.65173206 -68.45727539 191.60424805 C-79.87783952 191.55822137 -91.29835576 191.52289401 -102.71899414 191.50170898 C-103.42517007 191.50039537 -104.13134599 191.49908175 -104.85892119 191.49772833 C-108.40225843 191.49120226 -111.945596 191.48488393 -115.4889338 191.47866881 C-144.79766687 191.42699257 -174.10622901 191.33868929 -203.41479492 191.22705078 C-202.82199246 188.12677537 -202.19276251 185.39284483 -200.86425781 182.52587891 C-200.5504567 181.8416687 -200.23665558 181.1574585 -199.91334534 180.45251465 C-199.57480026 179.72842407 -199.23625519 179.0043335 -198.88745117 178.25830078 C-198.53847275 177.50037231 -198.18949432 176.74244385 -197.8299408 175.96154785 C-196.71740907 173.54769435 -195.59765414 171.13727984 -194.47729492 168.72705078 C-193.36193846 166.31618527 -192.24809749 163.9046294 -191.13536072 161.49255371 C-190.44380924 159.99471461 -189.75050191 158.49768457 -189.05519104 157.00158691 C-188.73823776 156.31737671 -188.42128448 155.6331665 -188.09472656 154.92822266 C-187.81794571 154.3326355 -187.54116486 153.73704834 -187.2559967 153.12341309 C-186.24678491 150.8482976 -185.33475797 148.53949917 -184.41479492 146.22705078 C-183.34210609 146.22650601 -182.26941727 146.22596125 -181.16422272 146.22539997 C-155.01300731 146.21097785 -128.86195784 146.16785072 -102.71083832 146.09496021 C-90.06412341 146.06036864 -77.41751685 146.03496234 -64.77075195 146.03149414 C-53.74246682 146.02844614 -42.71437493 146.00784336 -31.68616438 145.96652621 C-25.85163636 145.94527051 -20.01738256 145.93255737 -14.18281555 145.94089699 C-8.68006627 145.94848416 -3.17787048 145.93242563 2.3247776 145.89899063 C4.333737 145.89081334 6.34275203 145.89094048 8.35170555 145.90045357 C23.01798939 145.96297279 39.79538933 145.18798053 51.29223633 134.66455078 C55.29461627 129.46004259 57.08390256 126.03714903 56.88989258 119.47314453 C56.3926647 115.80768258 55.08632063 113.91574999 52.58520508 111.22705078 C46.68112032 107.17061514 41.2329931 106.65570816 34.22875977 106.72875977 C33.22274216 106.72324097 32.21672455 106.71772217 31.18022156 106.71203613 C29.00702612 106.70274813 26.83377625 106.70258435 24.66057587 106.71063042 C21.21185848 106.7233108 17.76393563 106.71192214 14.31524658 106.69459534 C8.23056326 106.66792529 2.14607578 106.66229812 -3.93865967 106.66369629 C-13.66210752 106.66592611 -23.38531192 106.65159957 -33.10866547 106.60811043 C-36.48975129 106.5983344 -39.87044851 106.60695874 -43.25152588 106.61680603 C-60.82239432 106.59880238 -74.81762953 105.174365 -88.14526367 92.72705078 C-91.58005515 88.94345949 -93.59088813 84.96602257 -95.41479492 80.22705078 C-95.84791992 79.13392578 -96.28104492 78.04080078 -96.72729492 76.91455078 C-99.37874117 62.69315726 -95.58592115 50.92323888 -87.62182617 39.05517578 C-80.62026631 30.08326545 -72.20088421 22.07033888 -62.41479492 16.22705078 C-61.3190918 15.57220703 -60.22338867 14.91736328 -59.09448242 14.24267578 C-52.36285679 10.37640418 -45.52315798 7.32836331 -38.16479492 4.85205078 C-37.45709961 4.61349365 -36.7494043 4.37493652 -36.02026367 4.12915039 C-24.06856208 0.32270952 -12.4304235 -0.05360436 0 0 Z " fill="#FEFEFE" transform="translate(236.414794921875,443.77294921875)"/>
<path d="M0 0 C4.48154174 0.01901491 8.96309244 0.02053645 13.44466829 0.02407622 C21.89424254 0.03332499 30.34369749 0.05783944 38.79321969 0.08812469 C48.42835429 0.12189476 58.0634952 0.13821098 67.69867444 0.153211 C87.48478915 0.1843972 107.27079719 0.23701491 127.05682039 0.30418181 C120.44611371 15.83337225 113.4507663 31.13238173 106.05682039 46.30418181 C105.31304864 46.30472658 104.56927689 46.30527135 103.80296659 46.30583262 C85.64676192 46.32084561 67.49081041 46.36347415 49.33474302 46.43627238 C40.55433016 46.47082265 31.77407267 46.49626476 22.99358797 46.49973845 C15.33426125 46.50279229 7.67521194 46.523472 0.01599222 46.56470639 C-4.03392698 46.58591031 -8.08345308 46.59870269 -12.1334281 46.59033561 C-15.95778137 46.5827145 -19.78134342 46.59893886 -23.6055522 46.63224196 C-24.99731507 46.64037954 -26.38915811 46.64034051 -27.78091192 46.63077903 C-44.36491316 46.52827018 -58.58879814 51.7067706 -71.13067961 62.74168181 C-74.39641207 66.27461861 -76.54073492 70.08436722 -78.62286711 74.38230681 C-78.96423201 75.07628066 -79.3055969 75.77025451 -79.65730619 76.48525786 C-83.48324926 84.31537603 -87.13216631 92.22884724 -90.75494719 100.15452361 C-91.90095442 102.66102609 -93.05167142 105.16532895 -94.20294523 107.66941619 C-94.93824205 109.27280767 -95.67327836 110.87631864 -96.40802336 112.47996306 C-96.92041815 113.59544272 -96.92041815 113.59544272 -97.44316435 114.73345733 C-100.40754709 121.22771932 -101.71149519 126.17777643 -100.94317961 133.30418181 C-98.45083577 138.8081078 -94.38994388 141.92456755 -88.94317961 144.30418181 C-84.9308246 145.00779847 -80.99356932 144.99541185 -76.92755461 144.96360564 C-75.74620436 144.97408935 -74.56485411 144.98457305 -73.34770536 144.99537444 C-69.46259413 145.02405936 -65.5783775 145.01783996 -61.69317961 145.01121306 C-58.99172969 145.02158134 -56.29034248 145.03939379 -53.58893156 145.05703521 C-47.21782725 145.09439655 -40.84693635 145.10661847 -34.47573328 145.10965961 C-27.21802612 145.11435908 -19.9605316 145.14731073 -12.70291853 145.18255746 C2.21696992 145.2543873 17.13675614 145.29099193 32.05682039 145.30418181 C30.56689241 149.89202593 28.79347408 154.2228717 26.72088289 158.57371306 C26.40025881 159.25415175 26.07963472 159.93459044 25.74929476 160.63564849 C24.72997099 162.79750571 23.70612735 164.95718185 22.68182039 167.11668181 C21.66548762 169.26585261 20.65014194 171.41548347 19.63576937 173.56558013 C19.00706595 174.89751386 18.3771399 176.22887152 17.74569368 177.55950713 C16.10121382 181.03619223 14.50287225 184.52951866 12.94436312 188.04568267 C12.58934914 188.84612848 12.23433516 189.6465743 11.86856318 190.47127604 C11.60068806 191.07613495 11.33281294 191.68099385 11.05682039 192.30418181 C-5.86021779 192.37457071 -22.77720963 192.42731523 -39.69436121 192.45961833 C-47.55103241 192.47502247 -55.4076121 192.4959869 -63.26422453 192.53050017 C-70.11992542 192.56060194 -76.97555996 192.57980357 -83.83132511 192.5864473 C-87.45426935 192.59032477 -91.07702397 192.59929876 -94.69990683 192.62137198 C-109.38335295 192.70732852 -123.59631481 192.7720801 -137.94317961 189.30418181 C-139.17322218 189.02459121 -140.40326475 188.7450006 -141.67058134 188.45693755 C-158.82584903 184.37986888 -174.61906232 174.81174856 -184.41192961 159.98386931 C-193.39553825 144.26255419 -195.55395842 127.63413478 -190.84991789 110.21360564 C-179.27376541 71.1816917 -146.55075804 42.60354136 -111.85065031 23.76634002 C-98.21379525 16.5839707 -84.55675498 10.8709722 -69.75567961 6.55418181 C-68.81369719 6.27219939 -67.87171476 5.99021697 -66.90118742 5.69968963 C-44.95082987 -0.40614263 -22.56932315 -0.11225517 0 0 Z " fill="#FDFEFE" transform="translate(920.9431796073914,443.6958181858063)"/>
<path d="M0 0 C0.9270238 0.00291284 1.8540476 0.00582568 2.80916303 0.00882679 C3.78598647 0.00797237 4.76280991 0.00711794 5.76923406 0.00623763 C9.06901515 0.00457986 12.36874631 0.01010903 15.66852278 0.01555592 C18.02332013 0.01583775 20.37811757 0.01568013 22.73291487 0.01511341 C29.14794795 0.01482529 35.56296252 0.0207244 41.97799128 0.02768737 C47.99617572 0.03376182 54.01436235 0.03430919 60.03254931 0.03533924 C71.95596976 0.03753008 83.87938338 0.04419101 95.80280012 0.05364186 C107.38808623 0.06281516 118.97337049 0.06989639 130.55865949 0.07414967 C131.27228871 0.07441239 131.98591793 0.07467512 132.72117228 0.0749458 C136.30109466 0.0762508 139.88101706 0.07751452 143.46093947 0.0787577 C173.17914559 0.08913129 202.8973446 0.10682458 232.61554426 0.12908131 C232.13750076 1.57759854 231.65822667 3.0257097 231.17842859 4.4736467 C230.91166399 5.28010665 230.6448994 6.0865666 230.37005103 6.91746473 C229.5950404 9.18918239 228.72359386 11.36960585 227.71442121 13.5472942 C227.19724531 14.67246449 227.19724531 14.67246449 226.66962141 15.82036549 C226.31790876 16.57321827 225.96619612 17.32607105 225.60382551 18.10173756 C225.2726573 18.82002735 224.94148908 19.53831715 224.60028547 20.2783733 C223.38138607 22.91850745 222.15425387 25.55483444 220.92804426 28.19158131 C218.18491926 34.11095631 215.44179426 40.03033131 212.61554426 46.12908131 C174.50054426 46.62408131 174.50054426 46.62408131 135.61554426 47.12908131 C125.1214807 69.72578752 114.66769238 92.33505933 104.38475507 115.02820545 C100.81414364 122.90390184 97.21416618 130.76615553 93.61554426 138.62908131 C87.46204578 152.07585944 81.33324301 165.53370129 75.22296613 179.00017506 C74.91970915 179.66818638 74.61645216 180.3361977 74.30400556 181.02445179 C73.4863986 182.82554475 72.66924151 184.6268419 71.85211653 186.42815357 C71.12975438 188.00594082 70.39158803 189.57699377 69.61554426 191.12908131 C37.93554426 191.12908131 6.25554426 191.12908131 -26.38445574 191.12908131 C-23.96090383 185.07020153 -21.54644632 179.1206909 -18.80242449 173.21892506 C-18.47176485 172.50205021 -18.14110522 171.78517536 -17.80042559 171.04657704 C-17.0935019 169.51450279 -16.38548587 167.98293214 -15.67644793 166.45183522 C-13.76529709 162.3245267 -11.86254531 158.19334545 -9.95867449 154.06267506 C-9.57166369 153.22356587 -9.18465288 152.38445668 -8.78591448 151.51991993 C-5.12143853 143.57016246 -1.49850801 135.60185756 2.11554426 127.62908131 C6.0248319 119.00703938 9.94804897 110.39181955 13.90851301 101.79314381 C14.27473768 100.99773182 14.64096235 100.20231983 15.01828474 99.38280445 C16.76949804 95.5802442 18.52273938 91.77864182 20.27960676 87.97869068 C26.53022167 74.41918843 32.54919945 60.77835712 38.61554426 47.12908131 C5.94554426 46.63408131 5.94554426 46.63408131 -27.38445574 46.12908131 C-24.87247153 39.84912077 -22.34467831 33.66721635 -19.52898699 27.53142506 C-19.18188174 26.77108464 -18.83477648 26.01074421 -18.47715288 25.22736317 C-17.75315551 23.64304828 -17.02799501 22.05926441 -16.30169207 20.47600514 C-15.18581477 18.04228291 -14.07496276 15.60630916 -12.96453387 13.17009693 C-12.25714729 11.62373767 -11.54947566 10.07750876 -10.84148699 8.53142506 C-10.50921602 7.80237461 -10.17694506 7.07332417 -9.83460528 6.32218128 C-7.05412057 0.27555976 -6.73844156 0.01607693 0 0 Z " fill="#FEFEFE" transform="translate(546.3844557404518,443.8709186911583)"/>
<path d="M0 0 C31.68 0 63.36 0 96 0 C94.05803937 5.8258819 92.14111382 11.20903704 89.55078125 16.70703125 C89.22153152 17.4169371 88.8922818 18.12684296 88.55305481 18.85826111 C87.84569373 20.3828559 87.13632553 21.90652082 86.42510986 23.42932129 C84.49496778 27.56363079 82.58131572 31.70555314 80.66796875 35.84765625 C80.27520752 36.69742035 79.88244629 37.54718445 79.4777832 38.42269897 C75.6028579 46.82539894 71.85745363 55.28331732 68.125 63.75 C62.39497869 76.73572011 56.49537038 89.63475246 50.5 102.5 C43.86808056 116.73236258 37.36105561 131.01103173 31.04101562 145.38476562 C24.16622612 160.98969096 17.0587807 176.47068246 10 192 C-21.68 192 -53.36 192 -86 192 C-83.95391822 185.86175467 -81.86205814 180.21007114 -79.11328125 174.41796875 C-78.55261459 173.21952583 -78.55261459 173.21952583 -77.98062134 171.99687195 C-77.17897357 170.28367758 -76.37531015 168.57142517 -75.5697937 166.86004639 C-73.40691525 162.26255815 -71.26136609 157.65701442 -69.1171875 153.05078125 C-68.68202316 152.11621094 -68.24685883 151.18164062 -67.79850769 150.21875 C-63.74090238 141.48287336 -59.82109766 132.68930111 -55.9375 123.875 C-50.4176146 111.35662958 -44.75937727 98.90998262 -39 86.5 C-32.53683228 72.57032138 -26.1984852 58.59226243 -20.00390625 44.54101562 C-13.43180387 29.64860262 -6.70126697 14.83851973 0 0 Z " fill="#FDFEFE" transform="translate(424,444)"/>
</svg>
